{"asset":{"version":"2.0","generator":"ChatGPT street-light low-poly asset pack"},"extensionsUsed":["KHR_materials_unlit"],"extensionsRequired":["KHR_materials_unlit"],"scene":0,"scenes":[{"nodes":[0,1,2,3,4]}],"nodes":[{"name":"pole","mesh":0},{"name":"base","mesh":1},{"name":"top","mesh":2},{"name":"cap","mesh":3},{"name":"glow","mesh":4}],"meshes":[{"name":"pole","primitives":[{"attributes":{"POSITION":0},"indices":1,"material":0}]},{"name":"base","primitives":[{"attributes":{"POSITION":2},"indices":3,"material":1}]},{"name":"top","primitives":[{"attributes":{"POSITION":4},"indices":5,"material":2}]},{"name":"cap","primitives":[{"attributes":{"POSITION":6},"indices":7,"material":3}]},{"name":"glow","primitives":[{"attributes":{"POSITION":8},"indices":9,"material":4}]}],"materials":[{"name":"poleMat","pbrMetallicRoughness":{"baseColorFactor":[0.35,0.25,0.48,1],"metallicFactor":0.15,"roughnessFactor":0.72},"doubleSided":true,"extensions":{"KHR_materials_unlit":{}}},{"name":"baseMat","pbrMetallicRoughness":{"baseColorFactor":[0.25,0.18,0.38,1],"metallicFactor":0.15,"roughnessFactor":0.72},"doubleSided":true,"extensions":{"KHR_materials_unlit":{}}},{"name":"topMat","pbrMetallicRoughness":{"baseColorFactor":[0.55,0.2,0.85,1],"metallicFactor":0.15,"roughnessFactor":0.72},"doubleSided":true,"extensions":{"KHR_materials_unlit":{}}},{"name":"capMat","pbrMetallicRoughness":{"baseColorFactor":[0.36,0.12,0.55,1],"metallicFactor":0.15,"roughnessFactor":0.72},"doubleSided":true,"extensions":{"KHR_materials_unlit":{}}},{"name":"glowMat","pbrMetallicRoughness":{"baseColorFactor":[1.0,0.7,0.9,0.8],"metallicFactor":0.15,"roughnessFactor":0.72},"doubleSided":true,"extensions":{"KHR_materials_unlit":{}}}],"buffers":[{"uri":"data:application/octet-stream;base64,","byteLength":6576}],"bufferViews":[{"buffer":0,"byteOffset":0,"byteLength":360},{"buffer":0,"byteOffset":360,"byteLength":336},{"buffer":0,"byteOffset":696,"byteLength":408},{"buffer":0,"byteOffset":1104,"byteLength":384},{"buffer":0,"byteOffset":1488,"byteLength":1344},{"buffer":0,"byteOffset":2832,"byteLength":1176},{"buffer":0,"byteOffset":4008,"byteLength":360},{"buffer":0,"byteOffset":4368,"byteLength":336},{"buffer":0,"byteOffset":4704,"byteLength":1008},{"buffer":0,"byteOffset":5712,"byteLength":864}],"accessors":[{"bufferView":0,"componentType":5126,"count":30,"type":"VEC3","min":[-0.07,0.0,-0.06824495385272768],"max":[0.07,4.0,0.06824495385272766]},{"bufferView":1,"componentType":5123,"count":168,"type":"SCALAR"},{"bufferView":2,"componentType":5126,"count":34,"type":"VEC3","min":[-0.32,0.0,-0.32],"max":[0.32,0.2,0.32]},{"bufferView":3,"componentType":5123,"count":192,"type":"SCALAR"},{"bufferView":4,"componentType":5126,"count":112,"type":"VEC3","min":[-0.4094697231163659,3.9299999999999997,-0.39920346225950815],"max":[0.4094697231163659,4.77,0.39920346225950804]},{"bufferView":5,"componentType":5123,"count":588,"type":"SCALAR"},{"bufferView":6,"componentType":5126,"count":30,"type":"VEC3","min":[-0.32,4.69,-0.31197693189818365],"max":[0.32,4.81,0.31197693189818354]},{"bufferView":7,"componentType":5123,"count":168,"type":"SCALAR"},{"bufferView":8,"componentType":5126,"count":84,"type":"VEC3","min":[-0.24,4.09,-0.24],"max":[0.24,4.57,0.24]},{"bufferView":9,"componentType":5123,"count":432,"type":"SCALAR"}]}