{"asset":{"version":"2.0","generator":"ChatGPT street-light low-poly asset pack"},"extensionsUsed":["KHR_materials_unlit"],"extensionsRequired":["KHR_materials_unlit"],"scene":0,"scenes":[{"nodes":[0,1,2,3,4]}],"nodes":[{"name":"pole","mesh":0},{"name":"base","mesh":1},{"name":"arm","mesh":2},{"name":"lampHead","mesh":3},{"name":"lampGlow","mesh":4}],"meshes":[{"name":"pole","primitives":[{"attributes":{"POSITION":0},"indices":1,"material":0}]},{"name":"base","primitives":[{"attributes":{"POSITION":2},"indices":3,"material":1}]},{"name":"arm","primitives":[{"attributes":{"POSITION":4},"indices":5,"material":0}]},{"name":"lampHead","primitives":[{"attributes":{"POSITION":6},"indices":7,"material":2}]},{"name":"lampGlow","primitives":[{"attributes":{"POSITION":8},"indices":9,"material":3}]}],"materials":[{"name":"poleMat","pbrMetallicRoughness":{"baseColorFactor":[0.55,0.58,0.62,1],"metallicFactor":0.15,"roughnessFactor":0.72},"doubleSided":true,"extensions":{"KHR_materials_unlit":{}}},{"name":"baseMat","pbrMetallicRoughness":{"baseColorFactor":[0.25,0.28,0.32,1],"metallicFactor":0.15,"roughnessFactor":0.72},"doubleSided":true,"extensions":{"KHR_materials_unlit":{}}},{"name":"lampHeadMat","pbrMetallicRoughness":{"baseColorFactor":[0.2,0.48,1.0,1],"metallicFactor":0.15,"roughnessFactor":0.72},"doubleSided":true,"extensions":{"KHR_materials_unlit":{}}},{"name":"lampGlowMat","pbrMetallicRoughness":{"baseColorFactor":[1.0,0.85,0.35,0.65],"metallicFactor":0.15,"roughnessFactor":0.72},"doubleSided":true,"extensions":{"KHR_materials_unlit":{}}}],"buffers":[{"uri":"data:application/octet-stream;base64,","byteLength":3144}],"bufferViews":[{"buffer":0,"byteOffset":0,"byteLength":360},{"buffer":0,"byteOffset":360,"byteLength":336},{"buffer":0,"byteOffset":696,"byteLength":408},{"buffer":0,"byteOffset":1104,"byteLength":384},{"buffer":0,"byteOffset":1488,"byteLength":96},{"buffer":0,"byteOffset":1584,"byteLength":72},{"buffer":0,"byteOffset":1656,"byteLength":96},{"buffer":0,"byteOffset":1752,"byteLength":72},{"buffer":0,"byteOffset":1824,"byteLength":720},{"buffer":0,"byteOffset":2544,"byteLength":600}],"accessors":[{"bufferView":0,"componentType":5126,"count":30,"type":"VEC3","min":[-0.07,0.0,-0.06824495385272768],"max":[0.07,12.0,0.06824495385272766]},{"bufferView":1,"componentType":5123,"count":168,"type":"SCALAR"},{"bufferView":2,"componentType":5126,"count":34,"type":"VEC3","min":[-0.34,0.0,-0.34],"max":[0.34,0.2,0.34]},{"bufferView":3,"componentType":5123,"count":192,"type":"SCALAR"},{"bufferView":4,"componentType":5126,"count":8,"type":"VEC3","min":[0.0,11.69,-0.06],"max":[1.35,11.81,0.06]},{"bufferView":5,"componentType":5123,"count":36,"type":"SCALAR"},{"bufferView":6,"componentType":5126,"count":8,"type":"VEC3","min":[1.2349999999999999,11.6,-0.15],"max":[1.7850000000000001,11.76,0.15]},{"bufferView":7,"componentType":5123,"count":36,"type":"SCALAR"},{"bufferView":8,"componentType":5126,"count":60,"type":"VEC3","min":[1.5178309573927755,11.34,-0.14472135954999582],"max":[1.8221690426072248,11.66,0.14472135954999582]},{"bufferView":9,"componentType":5123,"count":300,"type":"SCALAR"}]}