{"asset":{"version":"2.0","generator":"ChatGPT street-light low-poly asset pack"},"extensionsUsed":["KHR_materials_unlit"],"extensionsRequired":["KHR_materials_unlit"],"scene":0,"scenes":[{"nodes":[0,1,2,3,4,5]}],"nodes":[{"name":"pole","mesh":0},{"name":"base","mesh":1},{"name":"arm","mesh":2},{"name":"lampHead","mesh":3},{"name":"solarPanel","mesh":4},{"name":"panelGrid","mesh":5}],"meshes":[{"name":"pole","primitives":[{"attributes":{"POSITION":0},"indices":1,"material":0}]},{"name":"base","primitives":[{"attributes":{"POSITION":2},"indices":3,"material":1}]},{"name":"arm","primitives":[{"attributes":{"POSITION":4},"indices":5,"material":0}]},{"name":"lampHead","primitives":[{"attributes":{"POSITION":6},"indices":7,"material":2}]},{"name":"solarPanel","primitives":[{"attributes":{"POSITION":8},"indices":9,"material":3}]},{"name":"panelGrid","primitives":[{"attributes":{"POSITION":10},"indices":11,"material":4}]}],"materials":[{"name":"poleMat","pbrMetallicRoughness":{"baseColorFactor":[0.55,0.58,0.62,1],"metallicFactor":0.15,"roughnessFactor":0.72},"doubleSided":true,"extensions":{"KHR_materials_unlit":{}}},{"name":"baseMat","pbrMetallicRoughness":{"baseColorFactor":[0.25,0.28,0.32,1],"metallicFactor":0.15,"roughnessFactor":0.72},"doubleSided":true,"extensions":{"KHR_materials_unlit":{}}},{"name":"lampHeadMat","pbrMetallicRoughness":{"baseColorFactor":[0.96,0.45,0.1,1],"metallicFactor":0.15,"roughnessFactor":0.72},"doubleSided":true,"extensions":{"KHR_materials_unlit":{}}},{"name":"solarPanelMat","pbrMetallicRoughness":{"baseColorFactor":[0.04,0.15,0.3,1],"metallicFactor":0.15,"roughnessFactor":0.72},"doubleSided":true,"extensions":{"KHR_materials_unlit":{}}},{"name":"panelGridMat","pbrMetallicRoughness":{"baseColorFactor":[0.1,0.58,0.8,1],"metallicFactor":0.15,"roughnessFactor":0.72},"doubleSided":true,"extensions":{"KHR_materials_unlit":{}}}],"buffers":[{"uri":"data:application/octet-stream;base64,","byteLength":2160}],"bufferViews":[{"buffer":0,"byteOffset":0,"byteLength":360},{"buffer":0,"byteOffset":360,"byteLength":336},{"buffer":0,"byteOffset":696,"byteLength":408},{"buffer":0,"byteOffset":1104,"byteLength":384},{"buffer":0,"byteOffset":1488,"byteLength":96},{"buffer":0,"byteOffset":1584,"byteLength":72},{"buffer":0,"byteOffset":1656,"byteLength":96},{"buffer":0,"byteOffset":1752,"byteLength":72},{"buffer":0,"byteOffset":1824,"byteLength":96},{"buffer":0,"byteOffset":1920,"byteLength":72},{"buffer":0,"byteOffset":1992,"byteLength":96},{"buffer":0,"byteOffset":2088,"byteLength":72}],"accessors":[{"bufferView":0,"componentType":5126,"count":30,"type":"VEC3","min":[-0.06,0.0,-0.05849567473090943],"max":[0.06,6.0,0.058495674730909414]},{"bufferView":1,"componentType":5123,"count":168,"type":"SCALAR"},{"bufferView":2,"componentType":5126,"count":34,"type":"VEC3","min":[-0.3,0.0,-0.3],"max":[0.3,0.2,0.3]},{"bufferView":3,"componentType":5123,"count":192,"type":"SCALAR"},{"bufferView":4,"componentType":5126,"count":8,"type":"VEC3","min":[0.0,5.2,-0.05],"max":[1.1,5.3,0.05]},{"bufferView":5,"componentType":5123,"count":36,"type":"SCALAR"},{"bufferView":6,"componentType":5126,"count":8,"type":"VEC3","min":[0.8400000000000001,5.029999999999999,-0.125],"max":[1.26,5.17,0.125]},{"bufferView":7,"componentType":5123,"count":36,"type":"SCALAR"},{"bufferView":8,"componentType":5126,"count":8,"type":"VEC3","min":[-1.0606845295758172,6.21,-0.6401188561547715],"max":[0.7606845295758171,6.29,0.6401188561547715]},{"bufferView":9,"componentType":5123,"count":36,"type":"SCALAR"},{"bufferView":10,"componentType":5126,"count":8,"type":"VEC3","min":[-0.982860984609354,6.285,-0.5659028535005889],"max":[0.682860984609354,6.3149999999999995,0.5659028535005889]},{"bufferView":11,"componentType":5123,"count":36,"type":"SCALAR"}]}