{"asset":{"version":"2.0","generator":"ChatGPT street-light low-poly asset pack"},"extensionsUsed":["KHR_materials_unlit"],"extensionsRequired":["KHR_materials_unlit"],"scene":0,"scenes":[{"nodes":[0,1,2,3,4]}],"nodes":[{"name":"cabinetBody","mesh":0},{"name":"cabinetDoor","mesh":1},{"name":"display","mesh":2},{"name":"handle","mesh":3},{"name":"base","mesh":4}],"meshes":[{"name":"cabinetBody","primitives":[{"attributes":{"POSITION":0},"indices":1,"material":0}]},{"name":"cabinetDoor","primitives":[{"attributes":{"POSITION":2},"indices":3,"material":1}]},{"name":"display","primitives":[{"attributes":{"POSITION":4},"indices":5,"material":2}]},{"name":"handle","primitives":[{"attributes":{"POSITION":6},"indices":7,"material":3}]},{"name":"base","primitives":[{"attributes":{"POSITION":8},"indices":9,"material":4}]}],"materials":[{"name":"cabinetBodyMat","pbrMetallicRoughness":{"baseColorFactor":[0.35,0.39,0.45,1],"metallicFactor":0.15,"roughnessFactor":0.72},"doubleSided":true,"extensions":{"KHR_materials_unlit":{}}},{"name":"cabinetDoorMat","pbrMetallicRoughness":{"baseColorFactor":[0.56,0.62,0.7,1],"metallicFactor":0.15,"roughnessFactor":0.72},"doubleSided":true,"extensions":{"KHR_materials_unlit":{}}},{"name":"displayMat","pbrMetallicRoughness":{"baseColorFactor":[0.1,0.2,0.32,1],"metallicFactor":0.15,"roughnessFactor":0.72},"doubleSided":true,"extensions":{"KHR_materials_unlit":{}}},{"name":"handleMat","pbrMetallicRoughness":{"baseColorFactor":[0.08,0.1,0.13,1],"metallicFactor":0.15,"roughnessFactor":0.72},"doubleSided":true,"extensions":{"KHR_materials_unlit":{}}},{"name":"baseMat","pbrMetallicRoughness":{"baseColorFactor":[0.2,0.23,0.28,1],"metallicFactor":0.15,"roughnessFactor":0.72},"doubleSided":true,"extensions":{"KHR_materials_unlit":{}}}],"buffers":[{"uri":"data:application/octet-stream;base64,","byteLength":840}],"bufferViews":[{"buffer":0,"byteOffset":0,"byteLength":96},{"buffer":0,"byteOffset":96,"byteLength":72},{"buffer":0,"byteOffset":168,"byteLength":96},{"buffer":0,"byteOffset":264,"byteLength":72},{"buffer":0,"byteOffset":336,"byteLength":96},{"buffer":0,"byteOffset":432,"byteLength":72},{"buffer":0,"byteOffset":504,"byteLength":96},{"buffer":0,"byteOffset":600,"byteLength":72},{"buffer":0,"byteOffset":672,"byteLength":96},{"buffer":0,"byteOffset":768,"byteLength":72}],"accessors":[{"bufferView":0,"componentType":5126,"count":8,"type":"VEC3","min":[-0.4,0.04999999999999993,-0.25],"max":[0.4,1.65,0.25]},{"bufferView":1,"componentType":5123,"count":36,"type":"SCALAR"},{"bufferView":2,"componentType":5126,"count":8,"type":"VEC3","min":[-0.33,0.33000000000000007,-0.2775],"max":[0.33,1.51,-0.2425]},{"bufferView":3,"componentType":5123,"count":36,"type":"SCALAR"},{"bufferView":4,"componentType":5126,"count":8,"type":"VEC3","min":[-0.21,1.13,-0.3025],"max":[0.21,1.37,-0.26749999999999996]},{"bufferView":5,"componentType":5123,"count":36,"type":"SCALAR"},{"bufferView":6,"componentType":5126,"count":8,"type":"VEC3","min":[0.2275,0.755,-0.3325],"max":[0.2725,1.005,-0.2875]},{"bufferView":7,"componentType":5123,"count":36,"type":"SCALAR"},{"bufferView":8,"componentType":5126,"count":8,"type":"VEC3","min":[-0.5,0.0,-0.35],"max":[0.5,0.1,0.35]},{"bufferView":9,"componentType":5123,"count":36,"type":"SCALAR"}]}